Coordinates
version=1
nRows=11
nColumns=40
inDegrees=yes

Units are S.I. units (second, meters, Newtons, ...)
Angles are in degrees.

endheader
time	pelvis_tilt	pelvis_list	pelvis_rotation	pelvis_tx	pelvis_ty	pelvis_tz	hip_flexion_r	hip_adduction_r	hip_rotation_r	knee_angle_r	knee_angle_r_beta	ankle_angle_r	subtalar_angle_r	mtp_angle_r	hip_flexion_l	hip_adduction_l	hip_rotation_l	knee_angle_l	knee_angle_l_beta	ankle_angle_l	subtalar_angle_l	mtp_angle_l	lumbar_extension	lumbar_bending	lumbar_rotation	arm_flex_r	arm_add_r	arm_rot_r	elbow_flex_r	pro_sup_r	wrist_flex_r	wrist_dev_r	arm_flex_l	arm_add_l	arm_rot_l	elbow_flex_l	pro_sup_l	wrist_flex_l	wrist_dev_l
     10.35000000	     -3.35936979	     -5.36939404	      6.22395975	      1.04077069	      0.92354023	      0.49392881	      2.34530560	      2.69065065	    -16.30540145	     13.23504941	     13.23504941	     16.08187193	      4.06805441	     -6.11414168	     29.09329500	     -9.29098246	     -4.31731416	     20.78933433	     20.78933433	      4.61713991	     -4.16341384	      8.40402744	    -10.38781340	      6.67810050	      3.89569703	     27.61567127	    -16.20246176	      0.64559696	     62.94488988	     44.95895977	      0.00000000	      0.00000000	     -4.77736337	     -9.01633545	    -15.66123167	     31.88527849	     46.70810732	      0.00000000	      0.00000000
     10.36357143	     -3.27217177	     -5.33426962	      6.23202747	      1.04215690	      0.92274175	      0.49145655	      1.81459535	      2.54486162	    -16.14496879	     13.36354757	     13.36354757	     16.44411262	      3.88056005	     -6.08287407	     28.65329034	     -9.03087459	     -4.16129166	     21.42767776	     21.42767776	      4.46601737	     -4.95470692	      7.97377690	    -10.27655132	      6.45298180	      3.79741499	     26.92198669	    -15.83431367	      0.94340934	     63.01326596	     44.94336561	      0.00000000	      0.00000000	     -4.73669230	     -9.14430922	    -15.68622272	     31.82582693	     46.71100666	      0.00000000	      0.00000000
     10.37714286	     -3.21977169	     -5.33849420	      6.26652745	      1.04341258	      0.92184744	      0.48862673	      1.54392897	      2.37678084	    -15.83948962	     13.95514848	     13.95514848	     17.49115353	      3.48995919	     -4.12754509	     27.92055825	     -8.48935273	     -2.90049358	     21.15924560	     21.15924560	      1.69218144	     -8.27732357	      2.36251633	    -10.19662508	      6.33850593	      4.00224076	     25.66424170	    -16.71282674	      2.93300698	     65.05013684	     44.83106827	      0.00000000	      0.00000000	     -4.24749453	     -9.18014533	    -15.92860050	     31.32317301	     46.71715191	      0.00000000	      0.00000000
     10.39071429	     -3.11598642	     -5.26273884	      6.30880014	      1.04470170	      0.92118736	      0.48583004	      1.14717849	      2.12411708	    -15.68987579	     14.36709233	     14.36709233	     17.82430782	      3.20572798	     -4.11898587	     27.65645723	     -8.21047916	     -2.59150564	     22.01519377	     22.01519377	      1.93558302	     -9.05817182	      2.11109665	    -10.12702079	      6.07265675	      3.86986364	     24.94098169	    -16.40835227	      3.11500874	     64.85529186	     44.83186011	      0.00000000	      0.00000000	     -4.11023933	     -9.33729170	    -15.95821216	     31.37358493	     46.72029909	      0.00000000	      0.00000000
     10.40428571	     -3.12558841	     -5.17358542	      6.38856705	      1.04580080	      0.92051082	      0.48280050	      1.05819132	      1.79978542	    -15.44867378	     15.12408658	     15.12408658	     18.26065721	      2.58258970	     -3.76040512	     27.52864454	     -7.79071785	     -1.87237015	     22.77038963	     22.77038963	      2.14430222	    -10.42416895	      2.01067027	     -9.94902817	      5.77669008	      3.76598182	     23.99865479	    -16.31140244	      3.58721496	     64.71842895	     44.82534633	      0.00000000	      0.00000000	     -3.89022973	     -9.42916606	    -15.99914125	     31.50000938	     46.72070684	      0.00000000	      0.00000000
     10.41785714	     -2.92908561	     -5.05910379	      6.48070627	      1.04703292	      0.92034818	      0.47967359	      0.62524469	      1.47431229	    -15.35423765	     15.65015855	     15.65015855	     18.46321910	      2.28459445	     -3.67867427	     27.23888636	     -7.48105086	     -1.52102534	     23.61795892	     23.61795892	      2.67998370	    -11.06764238	      1.73862525	    -10.03911563	      5.46020677	      3.58256278	     23.07073569	    -16.11854778	      3.89338820	     64.47643112	     44.82099995	      0.00000000	      0.00000000	     -3.63573274	     -9.58997017	    -16.02049613	     31.61170347	     46.72562961	      0.00000000	      0.00000000
     10.43142857	     -2.92594972	     -4.96255264	      6.56271135	      1.04792384	      0.91997412	      0.47625110	      0.75421047	      1.03911293	    -15.14763569	     16.82573517	     16.82573517	     18.78648427	      1.63779376	     -3.43956069	     27.22999528	     -7.07784289	     -0.90511406	     24.49800333	     24.49800333	      3.22487622	    -12.08257307	      1.75241760	     -9.92256046	      5.22777359	      3.57607702	     22.03829456	    -16.26482009	      4.46843514	     64.20289145	     44.81155214	      0.00000000	      0.00000000	     -3.25872586	     -9.62620454	    -16.02948425	     31.84700877	     46.72683714	      0.00000000	      0.00000000
     10.44500000	     -2.70786230	     -4.90514621	      6.69428306	      1.04915492	      0.92034498	      0.47275760	      0.35559044	      0.73243916	    -15.10630127	     17.42691051	     17.42691051	     18.76883231	      1.38083756	     -3.41282566	     26.82323202	     -6.80384512	     -0.53877454	     25.06873486	     25.06873486	      3.90728477	    -12.41163992	      1.48273756	    -10.00380172	      5.00473671	      3.26277213	     20.91936050	    -16.02361828	      4.75967018	     63.86880333	     44.80834662	      0.00000000	      0.00000000	     -3.00069889	     -9.71189363	    -16.03070562	     31.96211399	     46.73004558	      0.00000000	      0.00000000
     10.45857143	     -2.74066750	     -4.74034501	      6.66759389	      1.04981714	      0.92018863	      0.46924069	      0.94489672	      0.07916066	    -14.79672022	     19.38212141	     19.38212141	     18.99687097	      0.56574491	     -3.48123459	     26.82153320	     -6.39199993	     -0.22160339	     25.89103163	     25.89103163	      4.59550463	    -13.14953588	      1.64746978	     -9.90946835	      4.66597696	      3.48221434	     19.79729116	    -16.37176216	      5.39462147	     63.30151861	     44.80566273	      0.00000000	      0.00000000	     -2.47161613	     -9.78966718	    -16.02283413	     32.34505094	     46.73199647	      0.00000000	      0.00000000
     10.47214286	     -2.67530345	     -4.63332425	      6.65818477	      1.05068863	      0.92055543	      0.46566680	      1.31578656	     -0.47622602	    -14.54977836	     21.08932358	     21.08932358	     18.94069128	     -0.08896269	     -3.61741257	     26.53865692	     -6.07892969	     -0.05483389	     26.40372511	     26.40372511	      5.36228247	    -13.46725949	      1.79255277	     -9.88950446	      4.41181429	      3.47726039	     18.60154182	    -16.49131458	      5.97842249	     62.69213885	     44.80558961	      0.00000000	      0.00000000	     -2.05572313	     -9.85633279	    -15.98625537	     32.66800334	     46.72842914	      0.00000000	      0.00000000
     10.48571429	     -2.62645394	     -4.54947680	      6.60034105	      1.05145438	      0.92103740	      0.46217224	      1.91203470	     -1.06234200	    -14.25373974	     23.13261161	     23.13261161	     18.71415949	     -0.82183705	     -4.01532983	     26.19702866	     -5.83081442	     -0.04625308	     26.77499262	     26.77499262	      6.11042027	    -13.59181630	      1.89095594	     -9.84688286	      4.15334818	      3.50413109	     17.39654719	    -16.59220151	      6.49989678	     61.91070326	     44.81341026	      0.00000000	      0.00000000	     -1.64907227	     -9.90109570	    -15.93450112	     33.03960230	     46.72286793	      0.00000000	      0.00000000
